<svg width="1762" height="1176" viewBox="0 0 1762 1176" fill="none" xmlns="http://www.w3.org/2000/svg">
<path d="M1102.97 56.0655C1084.47 53.6485 1059.38 94.6335 1077.53 114.338C1087.6 125.267 1109.51 120.538 1109.23 100.098C1109.19 99.5313 1109.01 98.9991 1108.71 98.5821C1108.42 98.165 1108.03 97.8857 1107.61 97.7862C1093.07 93.3724 1078.64 101.675 1081.1 124.059C1082.42 133.708 1086.16 142.48 1091.73 148.941C1097.29 155.402 1104.34 159.171 1111.73 159.632C1112.6 159.632 1112.29 157.635 1111.73 157.425C1099.05 153.904 1087.08 143.448 1084.58 125.477C1084.02 122.297 1083.97 118.994 1084.44 115.787C1084.92 112.581 1085.9 109.543 1087.32 106.876C1089.01 104.175 1091.25 102.17 1093.78 101.097C1095.96 100.203 1103.77 98.5744 1105.67 101.097C1109.08 105.773 1099.8 113.707 1097.03 114.968C1094.29 116.272 1091.37 116.759 1088.47 116.396C1085.57 116.033 1082.77 114.828 1080.26 112.867C1072.58 105.721 1074.48 92.269 1078.2 82.7584C1083.24 69.8848 1092.03 59.4284 1103.37 58.903C1104.4 58.903 1103.84 56.3282 1103.05 56.2232L1102.97 56.0655Z" fill="#DE6B59"/>
<path d="M1109.12 863.366C1114.94 845.974 1114.31 827.951 1131.27 822.223C1138.72 819.701 1156.35 817.389 1161.94 826.164C1162.96 828.283 1163.37 830.816 1163.1 833.303C1162.83 835.79 1161.9 838.067 1160.48 839.721C1156.08 844.975 1152.79 838.67 1151.64 833.1C1150.75 827.958 1151.09 822.578 1152.61 817.702C1154.13 812.827 1156.75 808.697 1160.12 805.882C1167.24 799.667 1175.85 797.213 1184.26 799.002C1192.68 800.792 1200.28 806.696 1205.57 815.55C1206.21 816.601 1206.88 815.55 1206.6 814.394C1193.61 774.723 1131.31 802.309 1151.12 840.351C1157.19 851.859 1167.89 841.718 1165.86 829.527C1163.65 816.023 1146.29 816.706 1138.6 817.389C1130.81 817.395 1123.3 821.234 1117.52 828.161C1110.74 836.989 1109.83 850.966 1108.4 862.841C1108.4 863.366 1108.76 864.154 1109.04 863.366H1109.12Z" fill="#DE6B59"/>
<path d="M1553.48 10.299C1565.65 5.56997 1582.37 6.88359 1592.56 17.7604C1600.48 26.1676 1604.92 44.4007 1593.31 50.6535C1588.75 53.0706 1573.73 53.0706 1571.95 44.8736C1570.68 39.1462 1575.32 35.7308 1579.04 34.9952C1589.94 32.7357 1600.17 47.9737 1599.89 61.5829C1599.53 82.0229 1581.58 88.8012 1568.9 88.9588C1568.07 88.9588 1568.26 91.0606 1568.9 91.1131C1590.5 93.898 1614.59 67.3628 1595.37 40.7751C1590.22 33.629 1582.13 28.5321 1574.68 32.473C1570.48 34.7324 1567.15 39.7767 1569.26 45.8194C1572.62 55.5402 1586.18 57.2217 1592.76 54.752C1594.5 54.1368 1596.13 53.0539 1597.55 51.5701C1598.96 50.0863 1600.13 48.2332 1600.99 46.1254C1601.84 44.0176 1602.36 41.6999 1602.51 39.3155C1602.66 36.9311 1602.45 34.5307 1601.87 32.2628C1596.56 6.41069 1569.26 0.735833 1553.09 8.77521C1552.61 8.77521 1552.81 10.5092 1553.36 10.299H1553.48Z" fill="#DE6B59"/>
<path d="M1712.91 1094.98C1725.08 1090.26 1741.8 1091.57 1751.99 1102.45C1759.91 1110.85 1764.35 1129.09 1752.74 1135.34C1748.18 1137.76 1733.16 1137.76 1731.38 1129.51C1730.11 1123.83 1734.75 1120.42 1738.43 1119.63C1749.37 1117.42 1759.56 1132.66 1759.32 1146.27C1758.96 1166.71 1741.01 1173.49 1728.33 1173.64C1727.5 1173.64 1727.69 1175.75 1728.33 1175.8C1749.93 1178.58 1774.02 1152.05 1754.8 1125.46C1749.65 1118.31 1741.56 1113.22 1734.11 1117.16C1729.91 1119.37 1726.58 1124.46 1728.69 1130.5C1732.05 1140.23 1745.61 1141.91 1752.19 1139.38C1753.93 1138.78 1755.56 1137.71 1756.98 1136.23C1758.4 1134.76 1759.58 1132.91 1760.43 1130.8C1761.29 1128.69 1761.81 1126.38 1761.95 1123.99C1762.1 1121.61 1761.88 1119.21 1761.3 1116.95C1755.99 1091.04 1728.69 1085.42 1712.52 1093.46C1712.04 1093.46 1712.2 1095.19 1712.79 1094.98H1712.91Z" fill="#DE6B59"/>
<path d="M1623.75 309.332C1609.24 315.059 1595.77 348.898 1609.24 364.294C1620.69 377.378 1643.84 374.435 1639.99 349.476C1639.96 349.192 1639.87 348.925 1639.73 348.704C1639.59 348.482 1639.41 348.314 1639.2 348.215C1623.98 343.381 1618.95 366.921 1622.16 382.474C1627.11 406.645 1645.5 406.33 1658.78 393.719C1659.21 393.299 1659.02 391.617 1658.38 392.038C1647.52 399.236 1632.31 405.647 1625.69 387.256C1622.16 377.43 1622.04 360.984 1628.86 353.575C1630.63 351.381 1632.97 350.177 1635.4 350.212C1640.47 351 1639.6 358.251 1636.74 362.875C1632.19 370.232 1623.03 369.443 1616.93 366.606C1596.04 356.78 1610.39 320.892 1624.02 310.803C1624.42 310.488 1624.34 309.122 1623.75 309.332V309.332Z" fill="#DE6B59"/>
<path d="M1301.2 224.787C1284.08 221.897 1247.26 241.024 1256.85 272.078C1261.97 288.629 1284.79 299.243 1292.28 280.275C1292.44 279.758 1292.45 279.179 1292.29 278.659C1292.14 278.139 1291.84 277.72 1291.45 277.49C1255.78 250.692 1218.22 328.091 1256.06 356.307C1257.25 357.201 1257.21 354.521 1256.54 353.838C1253.27 350.873 1250.49 347.075 1248.34 342.666C1246.19 338.256 1244.73 333.324 1244.04 328.157C1243.35 322.99 1243.45 317.693 1244.32 312.575C1245.19 307.457 1246.83 302.621 1249.13 298.35C1252.98 290.188 1258.47 283.604 1264.98 279.329C1269.85 276.281 1282.1 271.973 1286.66 278.278C1288.72 281.221 1288.68 277.542 1287.61 280.958C1286.59 282.986 1285.03 284.431 1283.25 285.004C1279.36 286.642 1275.16 286.457 1271.36 284.478C1263.43 280.8 1257.21 271.132 1259.47 259.519C1263.63 236.242 1285.98 227.992 1301.64 227.625C1302.71 227.625 1302.03 224.945 1301.2 224.787Z" fill="#DE6B59"/>
<path d="M1379.11 15.2906C1379.11 15.2906 1378.08 40.7223 1392.31 54.8569L1407.21 48.8143C1407.21 48.8143 1397.26 42.5089 1392.31 15.2906H1379.11Z" fill="#79CA95"/>
<path d="M1128.1 630.96C1128.1 630.96 1127.03 656.392 1141.25 670.526L1156.2 664.484C1156.2 664.484 1146.21 658.178 1141.25 630.96H1128.1Z" fill="#79CA95"/>
<path d="M1249.92 917.54C1249.92 917.54 1248.85 942.919 1263.12 957.054L1278.02 951.064C1278.02 951.064 1268.07 944.706 1263.12 917.54H1249.92Z" fill="#56C1D9"/>
<path d="M1716.99 142.712C1716.99 142.712 1708.28 165.412 1690.64 168.197L1679.98 153.064C1679.98 153.064 1691 154.22 1705.58 133.99L1716.99 142.712Z" fill="#79CA95"/>
<path d="M1614.79 954.321C1614.79 954.321 1606.11 977.021 1588.44 979.753L1577.78 964.673C1577.78 964.673 1588.83 965.776 1603.38 945.547L1614.79 954.321Z" fill="#79CA95"/>
<path d="M1370.87 477.581C1370.87 477.581 1362.19 500.28 1344.52 503.013L1333.85 487.932C1333.85 487.932 1344.91 489.036 1359.46 468.806L1370.87 477.581Z" fill="#DE6B59"/>
<path d="M1212.31 197.464C1212.31 197.464 1203.63 220.163 1186 222.948L1175.34 207.815C1175.34 207.815 1186.35 208.971 1200.94 188.742L1212.31 197.464Z" fill="#79CA95"/>
<path d="M1541.59 231.618C1541.59 231.618 1522.53 234.771 1510.92 216.853L1514.45 196.728C1514.45 196.728 1519.88 209.497 1540.68 214.173L1541.59 231.618Z" fill="#DE6B59"/>
<path d="M1265.22 107.559C1265.22 107.559 1246.19 110.712 1234.58 92.8468L1238.07 72.722C1238.07 72.722 1243.54 85.4379 1264.34 90.167L1265.22 107.559Z" fill="#DE6B59"/>
<path d="M944.731 52.3875C944.731 52.3875 925.709 55.5402 914.098 37.6749L917.585 17.5502C917.585 17.5502 923.054 30.2661 943.82 34.9951L944.731 52.3875Z" fill="#DE6B59"/>
<path d="M1172.76 391.408C1172.76 391.408 1153.74 394.508 1142.13 376.642L1145.61 356.518C1145.61 356.518 1151.08 369.286 1171.89 373.963L1172.76 391.408Z" fill="#DE6B59"/>
<path d="M1742.99 579.571C1742.99 579.571 1723.93 582.671 1712.36 564.806L1715.85 544.681C1715.85 544.681 1721.31 557.449 1742.08 562.126L1742.99 579.571Z" fill="#DE6B59"/>
<path d="M1411.09 324.885C1411.09 324.885 1402.41 347.585 1384.74 350.37L1374.08 335.237C1374.08 335.237 1387.12 337.916 1401.82 317.687L1411.09 324.885Z" fill="#79CA95"/>
<path d="M1430.27 358.409C1430.27 358.409 1426.87 383.473 1410.46 392.826L1396.98 382.317C1406.52 376.614 1414.44 367.047 1419.61 354.994L1430.27 358.409Z" fill="#56C1D9"/>
<path d="M760.453 36.4137C779 33.9966 804.046 74.9291 785.896 94.6335C775.869 105.615 753.915 100.834 754.192 80.3938C754.245 79.8363 754.431 79.3161 754.724 78.9094C755.016 78.5027 755.399 78.2311 755.817 78.1344C770.4 73.7206 784.786 81.9702 782.329 104.407C781.017 114.046 777.276 122.81 771.718 129.263C766.16 135.716 759.115 139.476 751.735 139.927C750.823 139.927 751.14 137.931 751.735 137.773C764.416 134.2 776.385 123.743 778.842 105.773C779.415 102.602 779.467 99.3048 778.996 96.1046C778.524 92.9043 777.539 89.876 776.107 87.2247C774.394 84.4304 772.089 82.3806 769.489 81.3396C767.349 80.4464 759.502 78.8175 757.798 81.3396C754.35 86.0687 763.663 93.9504 766.437 95.2115C769.167 96.5323 772.085 97.029 774.978 96.6654C777.872 96.3018 780.667 95.0871 783.161 93.1097C790.849 86.0161 788.947 72.5646 785.222 63.0014C780.229 50.1805 771.391 39.6715 760.057 39.1986C759.066 39.1986 759.582 36.6239 760.374 36.5188L760.453 36.4137Z" fill="#DE6B59"/>
<path d="M730.731 897.73C724.906 880.338 725.5 862.315 708.578 856.535C701.128 854.013 683.493 851.701 677.865 860.529C676.858 862.643 676.452 865.164 676.721 867.639C676.99 870.114 677.915 872.381 679.332 874.033C683.77 879.287 687.257 872.982 688.209 867.464C689.096 862.314 688.757 856.926 687.238 852.041C685.719 847.157 683.095 843.018 679.728 840.194C672.59 833.908 663.928 831.418 655.468 833.219C647.007 835.02 639.369 840.981 634.074 849.914C633.48 850.913 632.806 849.914 633.084 848.758C646.082 809.087 708.38 836.673 688.565 874.716C682.502 886.223 671.762 876.029 673.783 863.891C676.042 850.387 693.598 851.07 701.049 851.701C708.849 851.724 716.37 855.559 722.171 862.473C728.948 871.353 729.859 885.33 731.286 897.152C731.286 897.73 730.929 898.466 730.652 897.73H730.731Z" fill="#DE6B59"/>
<path d="M243.722 10.299C231.556 5.56997 214.832 6.88359 204.608 17.7604C196.682 26.1676 192.283 44.4007 203.895 50.6535C208.452 53.0706 223.472 53.0706 225.255 44.8736C226.523 39.1462 221.887 35.7308 218.161 34.9952C207.263 32.7357 197.039 47.9737 197.276 61.5829C197.673 82.0229 215.625 88.8012 228.307 88.9588C229.139 88.9588 228.941 91.0606 228.307 91.1131C206.708 93.898 182.614 67.3628 201.794 40.7751C206.986 33.629 215.07 28.5321 222.521 32.473C226.721 34.7324 230.05 39.7767 227.95 45.8194C224.581 55.5402 211.028 57.2217 204.449 54.752C202.705 54.1368 201.075 53.0539 199.659 51.5701C198.243 50.0863 197.072 48.2332 196.218 46.1254C195.363 44.0176 194.844 41.6999 194.692 39.3155C194.541 36.9311 194.759 34.5307 195.335 32.2628C200.645 6.41069 227.91 0.735833 244.119 8.77521C244.594 8.77521 244.396 10.5092 243.841 10.299H243.722Z" fill="#DE6B59"/>
<path d="M102.205 1075.54C90.0386 1070.81 73.3149 1072.13 63.0904 1083C55.1645 1091.41 50.726 1109.64 62.3771 1115.9C66.9345 1118.31 81.9145 1118.31 83.7375 1110.12C84.966 1104.39 80.3293 1100.97 76.6438 1100.24C65.706 1097.98 55.5212 1113.22 55.7589 1126.83C56.1156 1147.27 74.0678 1154.05 86.7493 1154.2C87.6212 1154.2 87.3834 1156.3 86.7493 1156.41C65.1512 1159.14 41.0563 1132.61 60.2371 1106.02C65.4286 1098.87 73.4734 1093.78 80.9238 1097.72C85.1641 1099.98 88.493 1105.02 86.3927 1111.06C83.0241 1120.78 69.4312 1122.47 62.8527 1120C61.109 1119.38 59.4793 1118.3 58.0647 1116.81C56.6501 1115.33 55.4809 1113.47 54.6298 1111.37C53.7787 1109.26 53.2638 1106.94 53.1172 1104.55C52.9706 1102.17 53.1953 1099.77 53.7775 1097.51C59.0482 1071.65 86.353 1066.24 102.562 1074.02C103.037 1074.02 102.839 1075.75 102.284 1075.54H102.205Z" fill="#DE6B59"/>
<path d="M133.393 319.053C147.898 324.78 161.372 358.619 147.898 374.015C136.445 387.151 113.301 384.156 117.145 359.197C117.189 358.916 117.284 358.654 117.422 358.434C117.56 358.214 117.738 358.043 117.938 357.936C133.156 353.154 138.189 376.694 134.979 392.248C130.025 416.366 111.637 416.103 98.3609 403.44C97.9249 403.019 98.1231 401.391 98.7572 401.811C109.616 409.01 124.833 415.368 131.452 396.977C134.979 387.151 135.098 370.704 128.281 363.348C126.513 361.14 124.172 359.917 121.742 359.933C116.67 360.721 117.542 368.025 120.395 372.596C124.952 379.952 134.107 379.164 140.21 376.327C161.095 366.553 146.749 330.613 133.116 320.524C132.72 320.209 132.799 318.842 133.393 319.053V319.053Z" fill="#DE6B59"/>
<path d="M179.483 749.396C154.794 752.023 159.232 814.184 179.166 822.591C180.391 823.172 181.691 823.425 182.99 823.335C184.29 823.244 185.562 822.813 186.735 822.065C188.198 820.64 189.372 818.757 190.153 816.584C190.934 814.412 191.298 812.017 191.213 809.612C188.835 799.103 175.361 812.45 173.816 816.601C171.25 822.071 170.053 828.475 170.394 834.901C170.736 841.327 172.599 847.445 175.718 852.384C185.863 866.939 205.282 867.412 217.963 859.005C218.597 858.532 218.716 860.161 218.28 860.581C204.608 872.193 181.702 870.512 171.557 852.121C163.631 837.409 169.06 798.368 186.735 801.836C203.221 805.041 191.808 829.947 179.324 826.637C166.841 823.327 162.323 801.363 161.134 787.754C159.628 770.624 163.472 747.504 179.483 747.872C179.998 747.872 179.958 749.343 179.483 749.396V749.396Z" fill="#DE6B59"/>
<path d="M489.545 224.787C506.665 221.897 543.481 241.024 533.891 272.078C528.779 288.629 505.952 299.243 498.462 280.275C498.301 279.758 498.298 279.179 498.453 278.659C498.608 278.139 498.91 277.72 499.294 277.49C534.961 250.692 572.53 328.091 534.683 356.307C533.494 357.201 533.534 354.521 534.208 353.838C537.479 350.873 540.271 347.073 542.419 342.659C544.568 338.245 546.03 333.307 546.721 328.134C547.411 322.961 547.315 317.657 546.439 312.533C545.563 307.41 543.924 302.57 541.619 298.298C537.763 290.136 532.276 283.551 525.767 279.276C520.892 276.229 508.647 271.92 504.089 278.225C502.028 281.168 502.068 277.49 503.138 280.905C504.155 282.934 505.712 284.379 507.497 284.951C511.388 286.59 515.586 286.404 519.386 284.426C527.312 280.748 533.534 271.079 531.275 259.467C527.114 236.19 504.763 227.94 489.109 227.572C488.039 227.572 488.713 224.892 489.545 224.735V224.787Z" fill="#DE6B59"/>
<path d="M420.074 61.5303C420.074 61.5303 421.144 86.9621 406.878 101.097L391.977 95.0015C391.977 95.0015 401.924 88.6961 406.878 61.4778L420.074 61.5303Z" fill="#79CA95"/>
<path d="M728.036 690.913C728.036 690.913 729.106 716.345 714.84 730.48L699.939 724.49C699.939 724.49 709.886 718.132 714.84 690.913H728.036Z" fill="#79CA95"/>
<path d="M669.147 994.886C669.147 994.886 670.177 1020.32 655.95 1034.45L641.049 1028.41C641.049 1028.41 650.996 1022.1 655.95 994.886H669.147Z" fill="#56C1D9"/>
<path d="M73.7509 142.712C73.7509 142.712 82.4694 165.412 100.105 168.197L110.963 153.064C110.963 153.064 99.9461 154.22 85.3623 133.99L73.7509 142.712Z" fill="#79CA95"/>
<path d="M258.108 926.63C258.108 926.63 266.787 949.33 284.462 952.115L295.122 936.982C295.122 936.982 284.065 938.138 269.521 917.908L258.108 926.63Z" fill="#79CA95"/>
<path d="M445.794 507.006C445.794 507.006 454.473 529.706 472.148 532.49L482.769 517.358C482.769 517.358 471.751 518.514 457.207 498.284L445.794 507.006Z" fill="#DE6B59"/>
<path d="M618.223 209.917C618.223 209.917 626.902 232.617 644.576 235.401L655.197 220.269C655.197 220.269 644.18 221.425 629.636 201.195L618.223 209.917Z" fill="#79CA95"/>
<path d="M249.112 231.618C249.112 231.618 268.174 234.771 279.785 216.853L276.258 196.728C276.258 196.728 270.829 209.497 250.024 214.173L249.112 231.618Z" fill="#DE6B59"/>
<path d="M574.63 34.8373C574.63 34.8373 593.692 37.99 605.303 20.1247L601.816 0C601.816 0 596.347 12.7159 575.541 17.4449L574.63 34.8373Z" fill="#DE6B59"/>
<path d="M617.866 370.179C617.866 370.179 636.888 373.28 648.5 355.414L645.012 335.29C645.012 335.29 639.543 348.058 618.738 352.734L617.866 370.179Z" fill="#DE6B59"/>
<path d="M0 869.829C0 869.829 19.0619 872.982 30.6734 855.117L27.1859 834.939C27.1859 834.939 21.717 847.708 0.91148 852.384L0 869.829Z" fill="#DE6B59"/>
<path d="M379.652 324.885C379.652 324.885 388.331 347.585 406.006 350.37L416.666 335.237C416.666 335.237 403.628 337.916 388.926 317.687L379.652 324.885Z" fill="#79CA95"/>
<path d="M360.63 358.409C360.63 358.409 364.038 383.473 380.445 392.826L393.919 382.317C384.385 376.614 376.462 367.047 371.29 354.994L360.63 358.409Z" fill="#56C1D9"/>
<path d="M986.303 227.625C986.303 227.625 977.624 250.324 959.949 253.109L949.289 238.029C949.289 238.029 962.327 240.656 977.03 220.426L986.303 227.625Z" fill="#79CA95"/>
<path d="M900.861 200.406C900.861 200.406 897.453 225.47 881.047 234.876L867.572 224.367C877.115 218.656 885.04 209.069 890.201 196.991L900.861 200.406Z" fill="#56C1D9"/>
</svg>
