<svg width="476" height="470" viewBox="0 0 476 470" fill="none" xmlns="http://www.w3.org/2000/svg">
<path d="M443.963 0C324.73 77.984 176.385 113.387 0 108.719V126.723C189.74 131.643 349.48 90.724 475.783 0H443.963ZM469.828 35.443L385.7 81.686L474.007 142.693L469.829 35.443H469.828ZM360.32 92.923L268.283 120.221L341.598 198.609L360.32 92.924V92.923ZM231.822 128.414L136.855 142.471L198.395 230.408L231.822 128.414ZM98.48 144.78L2.524 147.698L53.419 242.194L98.479 144.78H98.48ZM0 257.461V276.123C231.522 339.399 368.876 357.439 476 361.049V343.05C369.564 339.452 233.044 321.435 0 257.46V257.461ZM43.379 308.705L67.432 413.307L136.682 331.305L43.379 308.705ZM194.429 346.195L224.373 449.264L288.861 363.467L194.429 346.195ZM347.516 370.641L388.131 469.992L443.242 377.891L347.516 370.641Z" fill="#D3D94A"/>
</svg>
